# xmcd
#
# Track frame offsets:
#	150
#	17362
#	31430
#	43750
#	59235
#	70882
#
# Disc length: 1138 seconds
#
# Revision: 1
# Processed by: cddbd v1.5.2PL0 Copyright (c) Steve Scherf et al.
# Submitted via: audiograbber 1.83.01
#
DISCID=50047006
DTITLE=Comstock - Comstock Mid winter 2001
DYEAR=2001
DGENRE=Country
TTITLE0=Long Neck And Tall Tales - The Mahony Brothers Band
TTITLE1=Someone Else´s Trouble Now - Tomi Fujiyama
TTITLE2=Everything I Do Turns To Cash - Jim Cook
TTITLE3=Since You Been Gone - Ellen Harrington
TTITLE4=There´s Another Single In The Jukebox - Salty Dogz
TTITLE5=Gotta Sing, Gotta Shout - Jackson Kingman
EXTD=
EXTT0=
EXTT1=
EXTT2=
EXTT3=
EXTT4=
EXTT5=
PLAYORDER=
